Coordinates
version=1
nRows=14
nColumns=32
inDegrees=yes

Units are S.I. units (second, meters, Newtons, ...)
If the header above contains a line with 'inDegrees', this indicates whether rotational values are in degrees (yes) or radians (no).

endheader
time	pelvis_tilt	pelvis_list	pelvis_rotation	pelvis_tx	pelvis_ty	pelvis_tz	hip_flexion_r	hip_adduction_r	hip_rotation_r	knee_angle_r	ankle_angle_r	subtalar_angle_r	mtp_angle_r	hip_flexion_l	hip_adduction_l	hip_rotation_l	knee_angle_l	ankle_angle_l	subtalar_angle_l	mtp_angle_l	lumbar_extension	lumbar_bending	lumbar_rotation	arm_flex_r	arm_add_r	arm_rot_r	elbow_flex_r	arm_flex_l	arm_add_l	arm_rot_l	elbow_flex_l
      6.27000000	     -2.21241916	     -1.30981400	    -90.00000018	     -0.02907800	      0.99351421	      0.69766104	     -2.35464130	      7.12677301	     -3.01200257	    -11.61331076	      7.47863868	    -13.45523947	      0.00000000	     24.42102745	     -5.22867127	    -11.07578465	    -18.32980240	      5.17773759	     -0.69273111	      0.00000000	    -10.46855321	      2.56897700	      5.32164466	      0.00000000	      0.00000000	      0.00000000	      0.00000000	      0.00000000	      0.00000000	      0.00000000	      0.00000000
      6.28000000	     -2.26510328	     -1.32255612	    -90.00000018	     -0.02868757	      0.99252951	      0.70481155	     -2.72425653	      7.17115922	     -3.02298109	    -11.82229285	      7.51761214	    -13.47527962	      0.00000000	     24.63047843	     -5.19070353	    -11.04381990	    -18.25347155	      5.15539587	     -0.69812865	      0.00000000	    -10.34325370	      2.53565770	      5.31562009	      0.00000000	      0.00000000	      0.00000000	      0.00000000	      0.00000000	      0.00000000	      0.00000000	      0.00000000
      6.29000000	     -2.34020959	     -1.36163786	    -90.00000018	     -0.02829622	      0.99151195	      0.71216089	     -3.21450811	      7.25215588	     -2.98101949	    -11.85500701	      8.10730167	    -13.66163699	      0.00000000	     24.68823098	     -5.13375734	    -10.67632250	    -18.14278374	      5.05828025	     -0.72161098	      0.00000000	    -10.21529086	      2.51068242	      5.22380045	      0.00000000	      0.00000000	      0.00000000	      0.00000000	      0.00000000	      0.00000000	      0.00000000	      0.00000000
      6.30000000	     -2.39419031	     -1.36399958	    -90.00000018	     -0.02777874	      0.99042946	      0.71969098	     -3.58630635	      7.28142553	     -2.98124002	    -12.08896659	      8.15964265	    -13.67785573	      0.00000000	     24.74782728	     -5.07210822	    -10.61690278	    -18.14994882	      5.04645960	     -0.71317874	      0.00000000	    -10.01534723	      2.49996785	      5.22263277	      0.00000000	      0.00000000	      0.00000000	      0.00000000	      0.00000000	      0.00000000	      0.00000000	      0.00000000
      6.31000000	     -2.19302318	     -2.19944889	    -90.00000018	     -0.02689336	      0.99078244	      0.72774178	     -5.05755327	      7.00389651	     -3.11738584	    -12.00107958	      9.34850359	    -13.04254205	      0.00000000	     23.52517268	     -4.62536261	    -10.03406906	    -17.71054121	      5.27733366	     -0.68426131	      0.00000000	    -10.74686283	      2.20955019	      5.12438710	      0.00000000	      0.00000000	      0.00000000	      0.00000000	      0.00000000	      0.00000000	      0.00000000	      0.00000000
      6.32000000	     -2.26413492	     -2.17577471	    -90.00000018	     -0.02640495	      0.98948290	      0.73576102	     -5.42892275	      7.05776354	     -3.12745450	    -12.25858145	      9.38673100	    -13.06210956	      0.00000000	     23.45101339	     -4.57059756	     -9.92218313	    -17.81238196	      5.25764127	     -0.65614648	      0.00000000	    -10.44233961	      2.19008824	      5.11784017	      0.00000000	      0.00000000	      0.00000000	      0.00000000	      0.00000000	      0.00000000	      0.00000000	      0.00000000
      6.33000000	     -2.34904580	     -2.22494710	    -90.00000018	     -0.02551663	      0.98816600	      0.74378316	     -5.93783249	      7.10525026	     -3.13580934	    -12.37185197	      9.82966574	    -13.18700419	      0.00000000	     23.21703042	     -4.41179571	     -8.85411659	    -18.01626687	      5.10050841	     -0.32724942	      0.00000000	    -10.23074546	      2.22246328	      4.99486953	      0.00000000	      0.00000000	      0.00000000	      0.00000000	      0.00000000	      0.00000000	      0.00000000	      0.00000000
      6.34000000	     -2.46816788	     -2.43504359	    -90.00000018	     -0.02470321	      0.98715936	      0.75178586	     -6.49980522	      7.19369272	     -3.10753598	    -12.74199404	     10.45236415	    -13.14586406	      0.00000000	     22.69464597	     -4.32631772	     -8.24880119	    -18.21843347	      4.18409754	     -0.26934079	      0.00000000	    -10.22031059	      2.30695227	      4.90706576	      0.00000000	      0.00000000	      0.00000000	      0.00000000	      0.00000000	      0.00000000	      0.00000000	      0.00000000
      6.35000000	     -2.41841875	     -2.50189906	    -90.00000018	     -0.02394286	      0.98609092	      0.75976298	     -6.93070888	      7.10767444	     -3.15095013	    -13.02955566	     10.58696729	    -13.13230083	      0.00000000	     22.53073887	     -4.10612408	     -7.84106753	    -18.97907549	      3.81964678	     -0.35822394	      0.00000000	    -10.03607916	      2.15837514	      4.85106100	      0.00000000	      0.00000000	      0.00000000	      0.00000000	      0.00000000	      0.00000000	      0.00000000	      0.00000000
      6.36000000	     -2.28121875	     -2.70235354	    -90.00000018	     -0.02279930	      0.98559140	      0.76700654	     -7.19017076	      6.87780391	     -3.41119896	    -13.83998885	     11.22242676	    -13.12056928	      0.00000000	     22.23540332	     -3.73824138	     -7.09611077	    -19.56313393	      3.78522060	     -1.44591598	      0.00000000	    -10.15109308	      1.95718038	      4.72049478	      0.00000000	      0.00000000	      0.00000000	      0.00000000	      0.00000000	      0.00000000	      0.00000000	      0.00000000
      6.37000000	     -2.07296042	     -2.78859789	    -90.00000018	     -0.02209260	      0.98530829	      0.77459378	     -7.52405108	      6.62882980	     -3.37819044	    -14.27542570	     11.15773767	    -13.03718198	      0.00000000	     22.32623378	     -3.42995906	     -6.61449689	    -20.61951108	      3.83397771	     -1.68531269	      0.00000000	    -10.08620516	      1.60993013	      4.73420641	      0.00000000	      0.00000000	      0.00000000	      0.00000000	      0.00000000	      0.00000000	      0.00000000	      0.00000000
      6.38000000	     -1.90145888	     -2.94975966	    -90.00000018	     -0.02110216	      0.98520904	      0.78201180	     -7.75418356	      6.38381118	     -3.40343214	    -15.05762283	     11.16154189	    -13.02176319	      0.00000000	     22.42598310	     -3.16029266	     -6.02691498	    -21.84767907	      3.68783117	     -1.91114554	      0.00000000	    -10.15743397	      1.34772074	      4.73127999	      0.00000000	      0.00000000	      0.00000000	      0.00000000	      0.00000000	      0.00000000	      0.00000000	      0.00000000
      6.39000000	     -1.91602479	     -2.75981706	    -90.00000018	     -0.01943431	      0.98460330	      0.78901214	     -7.30261722	      6.23177951	     -3.88485342	    -16.36608679	     11.57276049	    -12.54482293	      0.00000000	     22.89559652	     -2.96688020	     -5.06042363	    -22.99417791	      2.15512562	     -3.88723426	      0.00000000	     -9.88562003	      1.41729714	      4.71326705	      0.00000000	      0.00000000	      0.00000000	      0.00000000	      0.00000000	      0.00000000	      0.00000000	      0.00000000
      6.40000000	     -1.75943742	     -2.89639684	    -90.00000018	     -0.01841231	      0.98472301	      0.79660806	     -7.34592512	      5.98255217	     -3.63761287	    -17.50413877	     11.35355638	    -12.45355781	      0.00000000	     22.77878189	     -2.77141936	     -4.88264543	    -23.86703431	      2.16466191	     -4.07587324	      0.00000000	     -9.93187003	      1.19580020	      4.77515976	      0.00000000	      0.00000000	      0.00000000	      0.00000000	      0.00000000	      0.00000000	      0.00000000	      0.00000000
